{"title":"OSU_VS_Iowa_480p_1-19-2011_TTL","uid":6115851,"size":1977506662,"categoryP":"video","categoryS":"tv_shows","magnet":"?xt=urn:btih:b224f6827a6aea7397327f3a57366ea17e65c147&amp;dn=OSU_VS_Iowa_480p_1-19-2011_TTL&amp;tr=udp%3A%2F%2Ftracker.openbittorrent.com%3A80&amp;tr=udp%3A%2F%2Fopen.demonii.com%3A1337&amp;tr=udp%3A%2F%2Ftracker.coppersurfer.tk%3A6969&amp;tr=udp%3A%2F%2Fexodus.desync.com%3A6969","seeders":0,"leechers":1,"uploader":"thetorrentlord","files":5,"time":1295548117,"description":"******************************************************************************************************************\t\n\n\t\t\t\t\t\t\t\t\t\t\t\t\t\t\t\n\n\t\t\t\t\t\t\t\t\t\t\t\t\t\t\t\n\nThis is from a SD broadcast.\t\t\t\t\t\t\t\t\t\t\t\t\n\n\t\t\t\t\t\t\t\t\t\t\t\t\t\t\t\n\n\t\t\t\t\t\t\t\t\t\t\t\t\t\t\t\n\n\t\t\t\t\t\t\t\t\t\t\t\t\t \n\n******************************************************************************************************************\t\n\n\t\t\t\t\t\t\t\t\t\t\t\t\t\t\t\n\n\t\t\t\t\t\t\t\t\t\t\t\t\t\t\t\n\n\t\t\t\t\t\t\t\t\t\t\t\t\t\t\t\n\n\t\t\t\t\t\t\t\t\t\t\t\t\t\t\t\n\n\t\t\t\t\t\t\t\t\t\t\n\nOSU_VS_Iowa_First_Half_480p_20110119_TTL.avi\nFormat                           : AVI\nFormat/Info                      : Audio Video Interleave\nFile size                        : 617 MiB\nDuration                         : 27mn 51s\nOverall bit rate                 : 3 099 Kbps\nMovie name                       : OSU_VS_Iowa_First_Half_20110119.mpg\nDirector                         : created.with.SUPER(C).v2009.bld.35\nWriting application              : SUPER(C)   \n\nVideo\nID                               : 0\nFormat                           : MPEG-4 Visual\nFormat profile                   : Simple@L3\nFormat settings, BVOP            : No\nFormat settings, QPel            : No\nFormat settings, GMC             : No warppoints\nFormat settings, Matrix          : Default (H.263)\nCodec ID                         : XVID\nCodec ID/Hint                    : XviD\nDuration                         : 27mn 51s\nBit rate                         : 3 025 Kbps\nWidth                            : 624 pixels\nHeight                           : 352 pixels\nDisplay aspect ratio             : 16:9\nFrame rate                       : 23.976 fps\nColor space                      : YUV\nChroma subsampling               : 4:2:0\nBit depth                        : 8 bits\nScan type                        : Progressive\nBits/(Pixel*Frame)               : 0.574\nStream size                      : 603 MiB (98%)\nWriting library                  : XviD 1.1.2 (UTC 2006-11-01)\n\nAudio\nID                               : 1\nFormat                           : MPEG Audio\nFormat version                   : Version 1\nFormat profile                   : Layer 3\nMode                             : Joint stereo\nMode extension                   : MS Stereo\nCodec ID                         : 55\nCodec ID/Hint                    : MP3\nDuration                         : 27mn 46s\nBit rate mode                    : Constant\nBit rate                         : 64.0 Kbps\nChannel(s)                       : 2 channels\nSampling rate                    : 32.0 KHz\nStream size                      : 12.7 MiB (2%)\nAlignment                        : Aligned on interleaves\nInterleave, duration             : 36 ms (0.87 video frame)\n\n","torrent":{"xt":"urn:btih:b224f6827a6aea7397327f3a57366ea17e65c147","amp;dn":"OSU_VS_Iowa_480p_1-19-2011_TTL","amp;tr":["udp%3A%2F%2Ftracker.openbittorrent.com%3A80","udp%3A%2F%2Fopen.demonii.com%3A1337","udp%3A%2F%2Ftracker.coppersurfer.tk%3A6969","udp%3A%2F%2Fexodus.desync.com%3A6969"],"infoHash":"b224f6827a6aea7397327f3a57366ea17e65c147","infoHashBuffer":{"type":"Buffer","data":[178,36,246,130,122,106,234,115,151,50,127,58,87,54,110,161,126,101,193,71]},"announce":[],"urlList":[]}}